<svg xmlns="http://www.w3.org/2000/svg" width="620.6" height="123.2" viewBox="0 0 620.6 123.2"><path fill="#211c1d" d="M0 110.8V44.2C0 37.1 4 33 10.5 33h25.9c22.9 0 34.7 9.6 34.7 27.6 0 12.7-6.4 21.5-18.7 24.9a21.5 21.5 0 0 1-4.4.9l23.2 28.1c.8.9-3 7.3-11.6 7.3-5.8 0-9-2.4-13.2-8.1L27 89.5h-6.9v23.2c0 5.7-3 9.1-8.9 9.1H8.5c-5.5 0-8.5-3.9-8.5-11zm35.1-35.6c10.7 0 15.9-5.1 15.9-13.3s-5.4-13.2-16.3-13.2H19.8v26.5zm48.8 35v-66c0-7.1 4-11.2 10.5-11.2h49.1c6.3 0 9.3 2.7 9.3 8.1v.6c0 5.5-3 8.1-9.3 8.1H104v18.7h28.9c6.6 0 9.3 2.4 9.3 7.5v.4c0 5.3-2.9 7.8-9.3 7.8H104v20.6h40.2c6.3 0 9.2 2.3 9.2 7.5v.7c0 5.6-2.9 8.3-9.2 8.3H94.4c-6.5 0-10.5-4-10.5-11.1zm81.3-.1V44.2c0-7.1 4-11.2 10.5-11.2h30.1c19.9 0 30.7 7.9 30.7 22.7 0 9.8-5.5 15.8-15.7 18.7 13.1 3 19.1 11.3 19.1 21.8 0 17-10.9 25.1-35.8 25.1h-28.4c-6.5 0-10.5-4.1-10.5-11.2zm36.2-39.4c9.3 0 14.6-4.5 14.6-11.9s-4.9-11.2-14.6-11.2H185v23.1zm1.1 36c12 0 16.9-3.6 16.9-12.4s-5.3-11.9-16.9-11.9H185v24.3zm46.4-29.5c0-26.9 19.1-46.1 45.6-46.1s45.3 19 45.3 46-18.9 46.1-45.5 46.1-45.4-19-45.4-46zm70.9 0c0-16.6-10.5-28.2-25.5-28.2s-25.4 11.2-25.4 28.1 10.4 28.2 25.6 28.2 25.3-11.3 25.3-28.1zm126.5 35.5V42.4c0-6.4 3.1-9.9 8.7-9.9h2.4c5.2 0 7.1 1.7 10.3 5.7l38.1 52.5V41.6c0-6 2.7-9.1 8.5-9.1h2c5.4 0 8.3 3.1 8.3 9.1v70.3c0 6.5-3.3 9.9-8.6 9.9h-1.7c-5.1 0-6.6-1.3-9.5-5l-39.6-54.4v50.3c0 6-3 9.1-8.7 9.1h-1.9c-5.6 0-8.3-3.1-8.3-9.1zm94.1-68.5c0-7.1 4.5-11.2 10.5-11.2h22.4c29.5 0 47.3 16.5 47.3 43.8s-18.2 44.5-48 44.5h-21a11.2 11.2 0 0 1-11.2-11.1zM600.6 77c0-17.1-10.5-26.8-27.9-26.8h-12.4v53.9h12.2c17.4 0 28.1-9.8 28.1-27.1z"/><path fill="#83c51b" d="M434.7 42.1l-16-16a1 1 0 0 0-1.5 0L401.3 42a.9.9 0 0 0 0 1.4h6.6v40.9s-.1 12.1-6.4 16.2c0 0-3.2 3.3-10.9 3.3 0 0-8 .6-12-3.4 0 0-6.4-4.4-6.4-16.6V39.5s.2-8.1-7.6-8.5h-5.1s-7.4.1-7.4 8.8v44.4s0 15.2 6.5 23.6a30.2 30.2 0 0 0 18.1 12 59 59 0 0 0 26.4 0s12.4-2.4 18.8-12.8c0 0 6-7.6 6-23.1V43.3h6.8a.8.8 0 0 0 0-1.2z"/><path fill="#211c1d" d="M352.1 40.1v43.7s-.8 13 5.3 22.3c0 0 6.2 12.4 22.8 14.4a57.9 57.9 0 0 0 26.1-1.6s-21.8-6-31.4-23.1c0 0-2.8-4.2-2.8-13.4V40.1s.5-7.8-6.2-8.9c0 0-5.5-.4-7.4 0 .1 0-6.4.5-6.4 8.9zM9.4 3.8H3a1.5 1.5 0 0 1-1.7-1.6V2C1.3 1 1.9.5 3 .5h16.6c1.1 0 1.7.5 1.7 1.5v.2a1.5 1.5 0 0 1-1.7 1.6h-6.4v18.5a1.5 1.5 0 0 1-1.7 1.7H11c-1.1 0-1.6-.5-1.6-1.7zm15.1 18.5V2C24.5.9 25 .3 26 .3h.6c1.1 0 1.6.6 1.6 1.7v8.5h12.3V2A1.5 1.5 0 0 1 42.1.3h.5A1.5 1.5 0 0 1 44.3 2v20.3a1.5 1.5 0 0 1-1.7 1.7h-.5c-1 0-1.6-.5-1.6-1.7v-8.5H28.2v8.5c0 1.2-.5 1.7-1.6 1.7H26c-1 0-1.5-.5-1.5-1.7zm24.8-.5V2.6A1.8 1.8 0 0 1 51.2.5h13.6c1.2 0 1.8.6 1.8 1.5v.2c0 1.1-.6 1.6-1.8 1.6H53v6.6h9.1c1.2 0 1.8.5 1.8 1.4 0 1.1-.6 1.6-1.8 1.6H53v7.1h12c1.2 0 1.7.5 1.7 1.5v.2c0 1-.5 1.6-1.7 1.6H51.2a1.8 1.8 0 0 1-1.9-2zm27.3.5V2A1.5 1.5 0 0 1 78.2.3h.5A1.5 1.5 0 0 1 80.4 2v8.5h12.3V2c0-1.1.5-1.7 1.6-1.7h.5c1.1 0 1.6.6 1.6 1.7v20.3c0 1.2-.5 1.7-1.6 1.7h-.5c-1.1 0-1.6-.5-1.6-1.7v-8.5H80.4v8.5a1.5 1.5 0 0 1-1.7 1.7h-.5c-1 0-1.6-.5-1.6-1.7zM101.1 2a1.5 1.5 0 0 1 1.6-1.7h.5c1.1 0 1.6.6 1.6 1.7v12.3c0 4.4 2 6.7 5.9 6.7s5.8-2.2 5.8-6.8V2c0-1.1.5-1.7 1.6-1.7h.6c1 0 1.5.6 1.5 1.7v12.3c0 6.5-3.3 10-9.6 10s-9.5-3.4-9.5-9.9zm23.8 19.8V2.6a1.9 1.9 0 0 1 2-2.1h7.7c5.1 0 7.9 2.1 7.9 6.1s-1.4 4.2-4.1 5c3.5.8 5.1 3 5.1 5.7 0 4.4-2.8 6.6-8.9 6.6h-7.7a1.9 1.9 0 0 1-2-2.1zm9.3-11.1c2.7 0 4.4-1.5 4.4-3.7s-1.5-3.5-4.5-3.5h-5.5v7.2zm.1 10.2c3.8 0 5.3-1.1 5.3-3.9s-1.7-3.6-5.2-3.6h-5.8v7.5zm11.3-13l2-6.2c.3-1.2.6-1.7 1.8-1.7h.4c.9 0 1.5.6 1.5 1.7a4.3 4.3 0 0 1-.8 2.3l-3 4.5c-.5.8-2.2.4-1.9-.6zm8.2 11.8a2.4 2.4 0 0 1 1.7-2 8.3 8.3 0 0 0 7 3.6c3.3 0 5.1-1.4 5.1-3.7s-2.7-3.2-5.9-4-7.3-2.1-7.3-6.8 3.4-6.8 8.4-6.8a10.8 10.8 0 0 1 6.6 1.9 2.9 2.9 0 0 1 1.4 2.3 2.4 2.4 0 0 1-1.7 2 7.9 7.9 0 0 0-6.3-3.1c-2.9 0-4.8 1.4-4.8 3.6s2.3 2.9 5.5 3.7 7.8 2.5 7.8 7-3.3 7-8.8 7a11.4 11.4 0 0 1-7.6-2.5 2.9 2.9 0 0 1-1.1-2.2z"/></svg>