<svg xmlns="http://www.w3.org/2000/svg"><symbol id="email" viewBox="0 0 100 100"><path d="M50 67.4L0 34v45.5h100V34L50 67.4z"/><path d="M100 18.7v9.1L50 61.2 0 27.8v-9.1h100z"/></symbol><symbol id="location" viewBox="0 0 100 100"><path d="M50 0a29.5 29.5 0 0 0-29.5 29.5 28.7 28.7 0 0 0 4.3 15.3L50 100l25.2-55.2a28.7 28.7 0 0 0 4.3-15.3A29.5 29.5 0 0 0 50 0zm0 11.5a18 18 0 1 1-18 18 17.9 17.9 0 0 1 18-18z"/></symbol><symbol id="phone" viewBox="0 0 100 100"><path d="M0 22.4c.2-1.1.3-2.3.5-3.4A25.5 25.5 0 0 1 5 7.8a28.6 28.6 0 0 1 5.6-5.9 7.7 7.7 0 0 1 10.4.5c3.3 3.1 6.4 6.4 9.6 9.6l5.6 5.5a7.9 7.9 0 0 1 .3 11.4c-1.9 2.2-4.1 4.2-6.2 6.3l-1.7 1.6a72.6 72.6 0 0 0 34.7 34.7c1.7-1.6 3.4-3.4 5.2-5.2l2.6-2.6a7.7 7.7 0 0 1 9.4-1.3 18.1 18.1 0 0 1 3.4 2.8l13.6 13.6a10.4 10.4 0 0 1 2.5 4.6v2.2a11.7 11.7 0 0 1-1.2 3 23 23 0 0 1-7 6.9 24.1 24.1 0 0 1-16.7 4.2 59.9 59.9 0 0 1-18.7-5.3A98.9 98.9 0 0 1 43 86.7a123.8 123.8 0 0 1-14.8-12.3 185.4 185.4 0 0 1-12.7-13.8A79.7 79.7 0 0 1 4 42.8 44.5 44.5 0 0 1 .5 31c-.2-1.2-.3-2.3-.5-3.5z"/></symbol><symbol id="right-indicator" viewBox="0 0 100 100"><path d="M33.2 96l-9.8-9.8L59.7 50 23.4 13.8 33.2 4l41.3 41.3a6.7 6.7 0 0 1 .3 9.4l-.3.3z"/></symbol></svg>
