<svg xmlns="http://www.w3.org/2000/svg" width="500" height="78.5" viewBox="0 0 500 78.5"><path fill="#211c1d" d="M0 68.5V14.9c0-5.7 3.2-9 8.5-9h20.8c18.5 0 28 7.7 28 22.2 0 10.2-5.2 17.3-15.1 20.1a19.7 19.7 0 0 1-3.5.6l18.7 22.7c.6.8-2.4 5.9-9.4 5.9-4.7 0-7.2-2-10.6-6.6L21.8 51.4h-5.6v18.7c0 4.6-2.5 7.3-7.2 7.3H6.8c-4.4 0-6.8-3.2-6.8-8.9zm28.2-28.7c8.7 0 12.9-4 12.9-10.6s-4.4-10.7-13.2-10.7h-12v21.3zm39.4 28.3V14.9c0-5.7 3.2-9 8.5-9h39.5c5.1 0 7.5 2.2 7.5 6.4v.6c0 4.4-2.4 6.5-7.5 6.5H83.8v15h23.3c5.2 0 7.4 2 7.4 6.1v.3c0 4.3-2.3 6.3-7.4 6.3H83.8v16.6h32.4c5 0 7.4 1.9 7.4 6v.6c0 4.5-2.4 6.7-7.4 6.7H76.1c-5.3 0-8.5-3.2-8.5-8.9zm65.5-.1V14.9c0-5.7 3.2-9 8.5-9h24.2c16 0 24.7 6.3 24.7 18.2 0 7.9-4.4 12.8-12.6 15.1 10.5 2.4 15.3 9.1 15.3 17.6 0 13.7-8.7 20.2-28.7 20.2h-22.9c-5.3 0-8.5-3.3-8.5-9zm29.2-31.8c7.4 0 11.7-3.6 11.7-9.6s-3.9-9-11.7-9h-13.2v18.6zm.8 29c9.7 0 13.7-2.8 13.7-10s-4.3-9.5-13.7-9.5h-14v19.5zm37.4-23.7c0-21.7 15.4-37.2 36.7-37.2s36.5 15.3 36.5 37.1-15.2 37.1-36.6 37.1-36.6-15.3-36.6-37zm57.2 0c0-13.4-8.5-22.8-20.6-22.8s-20.4 9-20.4 22.7 8.3 22.7 20.5 22.7 20.5-9.1 20.5-22.6zm101.8 28.6V13.4c0-5.1 2.5-8 7.1-8h1.9c4.2 0 5.7 1.5 8.3 4.6l30.6 42.4V12.8c0-4.8 2.2-7.4 7-7.4h1.5c4.4 0 6.7 2.6 6.7 7.4v56.6c0 5.3-2.6 8-6.9 8h-1.3c-4.2 0-5.4-1.1-7.7-4l-31.9-43.9v40.6c0 4.8-2.4 7.3-7 7.3h-1.6c-4.5 0-6.7-2.5-6.7-7.3zm75.9-55.2c0-5.7 3.6-9 8.4-9h18.1c23.7 0 38.1 13.3 38.1 35.2S485.3 77 461.3 77h-16.9a8.9 8.9 0 0 1-9-8.9zm48.4 26.4c0-13.8-8.4-21.6-22.4-21.6h-10v43.4h9.8c14.1 0 22.6-7.9 22.6-21.8z"/><path fill="#83c51b" d="M283.7 11.3v35.8s0 12.3 5.2 19a24.6 24.6 0 0 0 14.6 9.7 48.3 48.3 0 0 0 21.3 0s10-2 15.1-10.3c0 0 4.8-6.1 4.8-18.6V11a6.1 6.1 0 0 0-5.6-6.8h-4.5s-6 0-6 7v36s0 9.7-5.1 13c0 0-2.6 2.7-8.8 2.7 0 0-6.5.4-9.7-2.8 0 0-5.1-3.5-5.1-13.3V11.1s.1-6.6-6.2-6.9h-4.1s-5.9.2-5.9 7.1z"/><path fill="#211c1d" d="M283.7 11.6v35.2s-.6 10.5 4.3 18c0 0 5 9.9 18.4 11.6a47.3 47.3 0 0 0 21-1.4s-17.5-4.8-25.3-18.5c0 0-2.3-3.4-2.3-10.9v-34s.3-6.3-5-7.2a38.5 38.5 0 0 0-6 0s-5.1.4-5.1 7.2z"/><path fill="#83c51b" d="M323.3 14.2a.7.7 0 0 1 0-1.1L336.1.3a.8.8 0 0 1 1.2 0l12.9 12.9a.7.7 0 0 1 0 1z"/></svg>