<svg xmlns="http://www.w3.org/2000/svg"><symbol id="email" viewBox="0 0 100 100"><path d="M50 67.4L0 34v45.5h100V34L50 67.4z"/><path d="M100 18.7v9.1L50 61.2 0 27.8v-9.1h100z"/></symbol><symbol id="instagram" viewBox="0 0 100 100"><path d="M71.9 9A19.2 19.2 0 0 1 91 28.1v43.8A19.2 19.2 0 0 1 71.9 91H28.1A19.2 19.2 0 0 1 9 71.9V28.1A19.2 19.2 0 0 1 28.1 9h43.8m0-9H28.1A28.1 28.1 0 0 0 0 28.1v43.8A28.1 28.1 0 0 0 28.1 100h43.8A28.1 28.1 0 0 0 100 71.9V28.1A28.1 28.1 0 0 0 71.9 0z"/><path d="M50 33.5A16.5 16.5 0 1 1 33.5 50 16.5 16.5 0 0 1 50 33.5m0-9A25.5 25.5 0 1 0 75.5 50 25.5 25.5 0 0 0 50 24.5zm26.7 4.9a6.2 6.2 0 0 1-6.1-6.3 6 6 0 0 1 6.2-5.8 6 6 0 0 1 5.9 6.1 6.1 6.1 0 0 1-6 6z"/></symbol><symbol id="home" viewBox="0 0 100 100"><path d="M50 19.7L14.5 51.3v46.1h23.7V77.9A2.8 2.8 0 0 1 41 75h18a2.8 2.8 0 0 1 2.8 2.9v19.5h23.7V51.3zm-22.4-3.9L14.5 27.6V9.2h13.1v6.6z"/><path d="M95.6 52.6L50 11.8 4.6 52.5 0 47.4 50 2.6l50 44.8-4.4 5.2z"/></symbol><symbol id="facebook" viewBox="0 0 100 100"><path d="M65 16.3h11.3V0H60.2C44 0 39.4 13 39.4 21.2v15.2H23.7v18.5h15.7V100h18.4V54.9h15.3l2.4-18.5H57.8v-13a6.9 6.9 0 0 1 7.2-7.1z"/></symbol><symbol id="linked-in" viewBox="0 0 100 100"><path d="M1.8 33.2h20.8v66.6H1.8z"/><circle cx="12.2" cy="12.2" r="12.2"/><path d="M100 99.8H79.2V62s.7-12-10.7-12.3S56.4 62 56.4 62v37.8H35.6V33.2h20.8v8a23.4 23.4 0 0 1 18.7-9.7c16.3 0 19.1 7.8 21.1 10.6s3.8 10 3.8 19.9z"/></symbol><symbol id="location" viewBox="0 0 100 100"><path d="M50 0a29.5 29.5 0 0 0-29.5 29.5 28.7 28.7 0 0 0 4.3 15.3L50 100l25.2-55.2a28.7 28.7 0 0 0 4.3-15.3A29.5 29.5 0 0 0 50 0zm0 11.5a18 18 0 1 1-18 18 17.9 17.9 0 0 1 18-18z"/></symbol><symbol id="phone" viewBox="0 0 100 100"><path d="M0 22.4c.2-1.1.3-2.3.5-3.4A25.5 25.5 0 0 1 5 7.8a28.6 28.6 0 0 1 5.6-5.9 7.7 7.7 0 0 1 10.4.5c3.3 3.1 6.4 6.4 9.6 9.6l5.6 5.5a7.9 7.9 0 0 1 .3 11.4c-1.9 2.2-4.1 4.2-6.2 6.3l-1.7 1.6a72.6 72.6 0 0 0 34.7 34.7c1.7-1.6 3.4-3.4 5.2-5.2l2.6-2.6a7.7 7.7 0 0 1 9.4-1.3 18.1 18.1 0 0 1 3.4 2.8l13.6 13.6a10.4 10.4 0 0 1 2.5 4.6v2.2a11.7 11.7 0 0 1-1.2 3 23 23 0 0 1-7 6.9 24.1 24.1 0 0 1-16.7 4.2 59.9 59.9 0 0 1-18.7-5.3A98.9 98.9 0 0 1 43 86.7a123.8 123.8 0 0 1-14.8-12.3 185.4 185.4 0 0 1-12.7-13.8A79.7 79.7 0 0 1 4 42.8 44.5 44.5 0 0 1 .5 31c-.2-1.2-.3-2.3-.5-3.5z"/></symbol><symbol id="right-indicator" viewBox="0 0 100 100"><path d="M33.2 96l-9.8-9.8L59.7 50 23.4 13.8 33.2 4l41.3 41.3a6.7 6.7 0 0 1 .3 9.4l-.3.3z"/></symbol><symbol id="share" viewBox="0 0 100 100"><path d="M82.9 65a17 17 0 0 0-12.4 5.4L34 52.5a19.5 19.5 0 0 0 .2-2.5 19.5 19.5 0 0 0-.2-2.5l36.5-17.9A17 17 0 0 0 82.9 35a17.1 17.1 0 1 0-17.1-17.1 21.1 21.1 0 0 0 .2 2.5L29.5 38.2a17.1 17.1 0 1 0 0 23.6L66 79.6a21.1 21.1 0 0 0-.2 2.5A17.1 17.1 0 1 0 82.9 65z"/></symbol><symbol id="snapchat" viewBox="0 0 100 100"><path d="M22.2 33h.3c.1 2.6.2 5.2.4 7.7.1.8-.3 1.3-1 1.1a22.4 22.4 0 0 1-4.5-.9 5.9 5.9 0 0 0-5.2.3c-2.7 1.6-3 4.6-.5 6.4a24.6 24.6 0 0 0 4.2 2.3c1.4.6 2.9 1 4.2 1.6s2.7 2.5 1.7 4.7a48.3 48.3 0 0 1-3 5.5c-4.1 5.9-9.4 10.2-16.7 11.7-2 .3-2.6 2.1-1.6 3.8a6.3 6.3 0 0 0 3.7 2.7l8.4 2.2c.7.2 1 .4 1.1 1.1s.5 2.2.8 3.3 1.4 2.3 3.2 2.2l3.5-.6c4.8-.8 9.4-.3 13.4 2.9a26.2 26.2 0 0 0 3.4 2.4c7.3 4.7 14.7 5.1 22.3 1a39 39 0 0 0 5.4-3.6c3.5-2.7 7.5-3.4 11.8-2.9l4.6.7c1.9.2 2.8-.5 3.4-2.3s.5-2 .7-3.1.5-.9 1.2-1.1a89.8 89.8 0 0 0 8.9-2.4 8.4 8.4 0 0 0 3.1-2.5c1.2-1.6.4-3.4-1.6-3.8a24.7 24.7 0 0 1-3.6-1.1c-7.7-2.9-12.6-8.6-16-15.8-1.1-2.5-.6-4 1.9-5.1s2.7-1 4-1.5a12.2 12.2 0 0 0 4.8-2.8 3.5 3.5 0 0 0-.6-5.4 5.6 5.6 0 0 0-6.1-.8 27.3 27.3 0 0 1-4.1 1c-.8.1-1.2-.3-1.1-1.3.2-4.1.4-8.3.5-12.4A23.2 23.2 0 0 0 66.2 7.7c-10-6.4-20.6-6.4-31.1-1A23.1 23.1 0 0 0 23 23c-.6 3.3-.5 6.7-.8 10z"/></symbol><symbol id="twitter" viewBox="0 0 100 100"><path d="M50 31.1C47.2 8.3 75-.2 85.8 16.8c7.7-4.1 9.3-5.1 10.9-5.8-2 7.7-7.2 12.2-8.9 13.1l12.2-3.9c-4.1 8.7-9.9 11-9.9 11C92.3 68.8 53.9 111.2 0 83c18.8 1.2 29.1-8.1 29.1-8.1-11.2.3-19.6-10.1-19.3-13.8 5.7 1.7 13.1 2.5 16.3.3-19-6.3-22.8-18-23.1-23.3a41.5 41.5 0 0 0 9.4 2.9c-13.5-8.9-9.8-21.9-6.3-26.6C19.8 32.3 50 31.1 50 31.1z"/></symbol><symbol id="youtube" viewBox="0 0 100 100"><path d="M82.6 84.8H17.4A17.4 17.4 0 0 1 0 67.4V32.6a17.4 17.4 0 0 1 17.4-17.4h65.2A17.4 17.4 0 0 1 100 32.6v34.8a17.4 17.4 0 0 1-17.4 17.4zM66.3 49L39.7 34.9v28.2z"/></symbol><symbol id="website" viewBox="0 0 100 100"><path d="M50 0a50 50 0 1 0 50 50A50 50 0 0 0 50 0zM6.7 53.3h17.2a103.7 103.7 0 0 0 1.7 15.3H10.7a43.8 43.8 0 0 1-4-15.3zm46.6-21.9H68a87.6 87.6 0 0 1 1.9 15.3H53.3zm0-6.2V7.1c5 2 9.8 8.4 13 18.1zM46.7 7.1v18.1h-13c3.2-9.7 8-16.1 13-18.1zm0 24.3v15.3H30.1A87.6 87.6 0 0 1 32 31.4zM23.9 46.7H6.7a43.8 43.8 0 0 1 4-15.3h14.9a103.7 103.7 0 0 0-1.7 15.3zm6.2 6.6h16.6v15.3H32a87.6 87.6 0 0 1-1.9-15.3zm16.6 21.5v18.1c-5-2-9.8-8.4-13-18.1zm6.6 18.1V74.8h13c-3.2 9.7-8 16.1-13 18.1zm0-24.3V53.3h16.6A87.6 87.6 0 0 1 68 68.6zm22.8-15.3h17.2a43.8 43.8 0 0 1-4 15.3H74.4a103.7 103.7 0 0 0 1.7-15.3zm0-6.6a103.7 103.7 0 0 0-1.7-15.3h14.9a43.8 43.8 0 0 1 4 15.3zm9.5-21.5H72.8a50.5 50.5 0 0 0-7.5-15.8 42.9 42.9 0 0 1 20.3 15.8zM34.7 9.4a50.5 50.5 0 0 0-7.5 15.8H14.4A42.9 42.9 0 0 1 34.7 9.4zM14.4 74.8h12.8a50.5 50.5 0 0 0 7.5 15.8 42.9 42.9 0 0 1-20.3-15.8zm50.9 15.8a50.5 50.5 0 0 0 7.5-15.8h12.8a42.9 42.9 0 0 1-20.3 15.8z"/></symbol></svg>